# xmcd CD database file
#
# Track frame offsets:
#	150
#	16832
#	32082
#	50890
#	67720
#	83150
#	100905
#	118132
#	140400
#	156332
#	171290
#	186615
#	206277
#	223265
#	237765
#	254125
#	266980
#	285297
#	301800
#	318477
#
# Disc length: 4462 seconds
#
# Revision: 1
# Processed by: cddbd v1.5.2PL0 Copyright (c) Steve Scherf et al.
# Submitted via: CDex 1.50
#
DISCID=2b116c14
DTITLE=Various Artist - Come On!-all super-hits and big-breakers-
DYEAR=2004
DGENRE=Rock
TTITLE0=Britney Spears/Me Against The Music featuring Madonna
TTITLE1=Avril Lavigne/Don't Tell Me
TTITLE2=Usher/Burn
TTITLE3=Kevin Lyttle/My Love
TTITLE4=MAROON5/This Love
TTITLE5=OUTCAST/Hey Ya!
TTITLE6=Alicia Keys/If I Ain't Got You
TTITLE7=R.Kelly/Happy People
TTITLE8=Joe/Ride Wit U
TTITLE9=Holly Valance/State Of Mind
TTITLE10=BACKSTREET BOYS/Shining Star
TTITLE11=Justin Timberlake/Rock Your Body
TTITLE12=Christina Aguilera/Get Mine,Get Yours
TTITLE13=P!NK/Trouble
TTITLE14=DONOTS/Wretched Boy
TTITLE15=KASABIAN/Club Foot
TTITLE16=Silvertide/Ain't Comin' Home
TTITLE17=LILLIX/It's About Time
TTITLE18=Rachael Yamagata/Worn Me Down
TTITLE19=Natasha Bedingfield/These Words
EXTD=YEAR: 2004
EXTT0=
EXTT1=
EXTT2=
EXTT3=
EXTT4=
EXTT5=
EXTT6=
EXTT7=
EXTT8=
EXTT9=
EXTT10=
EXTT11=
EXTT12=
EXTT13=
EXTT14=
EXTT15=
EXTT16=
EXTT17=
EXTT18=
EXTT19=
PLAYORDER=
